<svg xmlns="http://www.w3.org/2000/svg" viewBox="0 0 32 32"><path fill="#499ed7" d="M10.467 6.755l12.135 7.339c1.287.778 1.287 2.645 0 3.423l-12.135 7.339c-1.333.806-3.035-.154-3.035-1.711V8.466c0-1.557 1.702-2.517 3.035-1.711z"/><path fill="#f04c4d" d="M10.467 24.855l12.135-7.339c1.287-.778 1.287-2.645 0-3.423l-2.457-1.486-.12-.004L9.642 25.118a1.95 1.95 0 0 0 .825-.263z"/><path fill="#2b8ec6" d="M7.432 20.415v2.729c0 1.558 1.702 2.517 3.035 1.711l12.135-7.339c.765-.462 1.064-1.308.919-2.082L7.432 20.415z"/><path fill="#499ed7" d="M8.51 6.7a1.974 1.974 0 0 0-1.078 1.766v2.566L8.51 6.7z"/><path fill="#92ca62" d="M22.602 14.094L10.467 6.755a1.96 1.96 0 0 0-.827-.264l10.384 12.585 2.579-1.559c1.286-.779 1.286-2.645-.001-3.423z"/><path fill="#e13340" d="M15.657 17.869l-6.015 7.25c.279-.029.559-.103.825-.263l12.135-7.339c.765-.462 1.064-1.308.919-2.082l-7.864 2.434z"/><path fill="#fcd770" d="M22.602 14.094l-2.457-1.486-.12-.004-2.678 3.228 2.677 3.244 2.579-1.559c1.286-.779 1.286-2.645-.001-3.423z"/><path fill="#ffcc5c" d="M18.342 17.037l1.682 2.038 2.579-1.559c.765-.462 1.064-1.308.919-2.082l-5.18 1.603z"/></svg>